<mxfile host="app.diagrams.net" modified="2024-04-26T12:21:00.535Z" agent="Mozilla/5.0 (Windows NT 10.0; Win64; x64; rv:123.0) Gecko/20100101 Firefox/123.0" etag="ss6Y18md5mzat-WtIO9y" version="24.2.8" type="github">
  <diagram name="Seite-1" id="wMBnERMgVnAe4a1eMwbq">
    <mxGraphModel dx="819" dy="495" grid="1" gridSize="10" guides="1" tooltips="1" connect="1" arrows="1" fold="1" page="1" pageScale="1" pageWidth="827" pageHeight="1169" math="1" shadow="0">
      <root>
        <mxCell id="0" />
        <mxCell id="1" parent="0" />
        <mxCell id="Gh2YYHZvv6eX0k9eP9Bt-2" value="" style="rounded=1;whiteSpace=wrap;html=1;" vertex="1" parent="1">
          <mxGeometry x="400" y="176" width="10" height="30" as="geometry" />
        </mxCell>
        <mxCell id="Gh2YYHZvv6eX0k9eP9Bt-3" value="" style="endArrow=none;html=1;rounded=0;" edge="1" parent="1">
          <mxGeometry width="50" height="50" relative="1" as="geometry">
            <mxPoint x="405" y="216" as="sourcePoint" />
            <mxPoint x="405" y="206" as="targetPoint" />
          </mxGeometry>
        </mxCell>
        <mxCell id="Gh2YYHZvv6eX0k9eP9Bt-4" value="" style="endArrow=none;html=1;rounded=0;" edge="1" parent="1">
          <mxGeometry width="50" height="50" relative="1" as="geometry">
            <mxPoint x="325" y="216" as="sourcePoint" />
            <mxPoint x="405" y="216" as="targetPoint" />
          </mxGeometry>
        </mxCell>
        <mxCell id="Gh2YYHZvv6eX0k9eP9Bt-5" value="" style="endArrow=none;html=1;rounded=0;" edge="1" parent="1">
          <mxGeometry width="50" height="50" relative="1" as="geometry">
            <mxPoint x="400" y="216" as="sourcePoint" />
            <mxPoint x="445" y="216" as="targetPoint" />
          </mxGeometry>
        </mxCell>
        <mxCell id="Gh2YYHZvv6eX0k9eP9Bt-6" value="" style="endArrow=none;html=1;rounded=0;" edge="1" parent="1">
          <mxGeometry width="50" height="50" relative="1" as="geometry">
            <mxPoint x="404.93" y="176" as="sourcePoint" />
            <mxPoint x="405" y="166" as="targetPoint" />
          </mxGeometry>
        </mxCell>
        <mxCell id="Gh2YYHZvv6eX0k9eP9Bt-7" value="" style="rounded=1;whiteSpace=wrap;html=1;" vertex="1" parent="1">
          <mxGeometry x="320" y="226" width="10" height="30" as="geometry" />
        </mxCell>
        <mxCell id="Gh2YYHZvv6eX0k9eP9Bt-8" value="" style="endArrow=none;html=1;rounded=0;" edge="1" parent="1">
          <mxGeometry width="50" height="50" relative="1" as="geometry">
            <mxPoint x="325" y="226" as="sourcePoint" />
            <mxPoint x="324.86" y="216" as="targetPoint" />
          </mxGeometry>
        </mxCell>
        <mxCell id="Gh2YYHZvv6eX0k9eP9Bt-9" value="" style="endArrow=none;html=1;rounded=0;exitX=0;exitY=0.5;exitDx=0;exitDy=0;" edge="1" parent="1" source="Gh2YYHZvv6eX0k9eP9Bt-10">
          <mxGeometry width="50" height="50" relative="1" as="geometry">
            <mxPoint x="324.89" y="276" as="sourcePoint" />
            <mxPoint x="324.89" y="256" as="targetPoint" />
          </mxGeometry>
        </mxCell>
        <mxCell id="Gh2YYHZvv6eX0k9eP9Bt-10" value="" style="triangle;whiteSpace=wrap;html=1;rotation=90;" vertex="1" parent="1">
          <mxGeometry x="321.25" y="266" width="7.5" height="12.5" as="geometry" />
        </mxCell>
        <mxCell id="Gh2YYHZvv6eX0k9eP9Bt-11" value="" style="rounded=1;whiteSpace=wrap;html=1;" vertex="1" parent="1">
          <mxGeometry x="320" y="126" width="10" height="30" as="geometry" />
        </mxCell>
        <mxCell id="Gh2YYHZvv6eX0k9eP9Bt-12" value="" style="endArrow=none;html=1;rounded=0;" edge="1" parent="1">
          <mxGeometry width="50" height="50" relative="1" as="geometry">
            <mxPoint x="325" y="166" as="sourcePoint" />
            <mxPoint x="405" y="166" as="targetPoint" />
          </mxGeometry>
        </mxCell>
        <mxCell id="Gh2YYHZvv6eX0k9eP9Bt-13" value="" style="endArrow=none;html=1;rounded=0;" edge="1" parent="1" source="Gh2YYHZvv6eX0k9eP9Bt-85">
          <mxGeometry width="50" height="50" relative="1" as="geometry">
            <mxPoint x="400" y="166" as="sourcePoint" />
            <mxPoint x="445" y="166" as="targetPoint" />
          </mxGeometry>
        </mxCell>
        <mxCell id="Gh2YYHZvv6eX0k9eP9Bt-14" value="" style="endArrow=none;html=1;rounded=0;" edge="1" parent="1">
          <mxGeometry width="50" height="50" relative="1" as="geometry">
            <mxPoint x="325.02" y="166" as="sourcePoint" />
            <mxPoint x="324.88" y="156" as="targetPoint" />
          </mxGeometry>
        </mxCell>
        <mxCell id="Gh2YYHZvv6eX0k9eP9Bt-15" value="" style="endArrow=none;html=1;rounded=0;exitX=0;exitY=0.5;exitDx=0;exitDy=0;" edge="1" parent="1">
          <mxGeometry width="50" height="50" relative="1" as="geometry">
            <mxPoint x="324.97" y="126" as="sourcePoint" />
            <mxPoint x="325" y="106" as="targetPoint" />
          </mxGeometry>
        </mxCell>
        <mxCell id="Gh2YYHZvv6eX0k9eP9Bt-18" value="" style="endArrow=classic;html=1;rounded=0;" edge="1" parent="1">
          <mxGeometry width="50" height="50" relative="1" as="geometry">
            <mxPoint x="445" y="191" as="sourcePoint" />
            <mxPoint x="415" y="190.82999999999998" as="targetPoint" />
          </mxGeometry>
        </mxCell>
        <mxCell id="Gh2YYHZvv6eX0k9eP9Bt-22" value="" style="endArrow=none;html=1;rounded=0;" edge="1" parent="1">
          <mxGeometry width="50" height="50" relative="1" as="geometry">
            <mxPoint x="330" y="106" as="sourcePoint" />
            <mxPoint x="320" y="106" as="targetPoint" />
            <Array as="points">
              <mxPoint x="320" y="106" />
            </Array>
          </mxGeometry>
        </mxCell>
        <mxCell id="Gh2YYHZvv6eX0k9eP9Bt-27" value="&lt;br&gt;&lt;div&gt;&lt;span lang=&quot;de&quot; class=&quot;BxUVEf ILfuVd&quot;&gt;&lt;span class=&quot;hgKElc&quot;&gt;$$150\,&amp;nbsp; \Omega$$&lt;/span&gt;&lt;/span&gt;&lt;div&gt;&lt;span lang=&quot;de&quot; class=&quot;BxUVEf ILfuVd&quot;&gt;&lt;span class=&quot;hgKElc&quot;&gt;&lt;br&gt;&lt;/span&gt;&lt;/span&gt;&lt;/div&gt;&lt;/div&gt;" style="text;html=1;align=center;verticalAlign=middle;whiteSpace=wrap;rounded=0;opacity=0;" vertex="1" parent="1">
          <mxGeometry x="305" y="126" width="90" height="30" as="geometry" />
        </mxCell>
        <mxCell id="Gh2YYHZvv6eX0k9eP9Bt-29" value="&lt;br&gt;&lt;div&gt;&lt;span lang=&quot;de&quot; class=&quot;BxUVEf ILfuVd&quot;&gt;&lt;span class=&quot;hgKElc&quot;&gt;$$1.35\, \text{V}$$&lt;/span&gt;&lt;/span&gt;&lt;/div&gt;" style="text;html=1;align=center;verticalAlign=middle;whiteSpace=wrap;rounded=0;" vertex="1" parent="1">
          <mxGeometry x="442" y="142" width="50" height="30" as="geometry" />
        </mxCell>
        <mxCell id="Gh2YYHZvv6eX0k9eP9Bt-33" value="&lt;br&gt;&lt;div&gt;&lt;span lang=&quot;de&quot; class=&quot;BxUVEf ILfuVd&quot;&gt;&lt;span class=&quot;hgKElc&quot;&gt;$$1.2\, \text{V}$$&lt;/span&gt;&lt;/span&gt;&lt;/div&gt;" style="text;html=1;align=center;verticalAlign=middle;whiteSpace=wrap;rounded=0;" vertex="1" parent="1">
          <mxGeometry x="438" y="168" width="50" height="30" as="geometry" />
        </mxCell>
        <mxCell id="Gh2YYHZvv6eX0k9eP9Bt-34" value="&lt;br&gt;&lt;div&gt;&lt;span lang=&quot;de&quot; class=&quot;BxUVEf ILfuVd&quot;&gt;&lt;span class=&quot;hgKElc&quot;&gt;$$1.05\, \text{V}$$&lt;/span&gt;&lt;/span&gt;&lt;/div&gt;" style="text;html=1;align=center;verticalAlign=middle;whiteSpace=wrap;rounded=0;" vertex="1" parent="1">
          <mxGeometry x="442" y="194" width="50" height="30" as="geometry" />
        </mxCell>
        <mxCell id="Gh2YYHZvv6eX0k9eP9Bt-35" value="&lt;br&gt;&lt;div&gt;&lt;span lang=&quot;de&quot; class=&quot;BxUVEf ILfuVd&quot;&gt;&lt;span class=&quot;hgKElc&quot;&gt;$$350\,&amp;nbsp; \Omega$$&lt;/span&gt;&lt;/span&gt;&lt;div&gt;&lt;span lang=&quot;de&quot; class=&quot;BxUVEf ILfuVd&quot;&gt;&lt;span class=&quot;hgKElc&quot;&gt;&lt;br&gt;&lt;/span&gt;&lt;/span&gt;&lt;/div&gt;&lt;/div&gt;" style="text;html=1;align=center;verticalAlign=middle;whiteSpace=wrap;rounded=0;opacity=0;" vertex="1" parent="1">
          <mxGeometry x="305" y="226" width="90" height="30" as="geometry" />
        </mxCell>
        <mxCell id="Gh2YYHZvv6eX0k9eP9Bt-36" value="&lt;br&gt;&lt;div&gt;&lt;span lang=&quot;de&quot; class=&quot;BxUVEf ILfuVd&quot;&gt;&lt;span class=&quot;hgKElc&quot;&gt;$$1.8\, \text{V}$$&lt;/span&gt;&lt;/span&gt;&lt;/div&gt;" style="text;html=1;align=center;verticalAlign=middle;whiteSpace=wrap;rounded=0;opacity=40;" vertex="1" parent="1">
          <mxGeometry x="302.5" y="80" width="45" height="19" as="geometry" />
        </mxCell>
        <mxCell id="Gh2YYHZvv6eX0k9eP9Bt-37" value="&lt;br&gt;&lt;div&gt;&lt;span lang=&quot;de&quot; class=&quot;BxUVEf ILfuVd&quot;&gt;&lt;span class=&quot;hgKElc&quot;&gt;$$3\, \text{mA}$$&lt;/span&gt;&lt;/span&gt;&lt;/div&gt;" style="text;html=1;align=center;verticalAlign=middle;whiteSpace=wrap;rounded=0;" vertex="1" parent="1">
          <mxGeometry x="325" y="185" width="50" height="30" as="geometry" />
        </mxCell>
        <mxCell id="Gh2YYHZvv6eX0k9eP9Bt-84" value="" style="shape=waypoint;sketch=0;fillStyle=solid;size=6;pointerEvents=1;points=[];fillColor=none;resizable=0;rotatable=0;perimeter=centerPerimeter;snapToPoint=1;" vertex="1" parent="1">
          <mxGeometry x="395" y="206" width="20" height="20" as="geometry" />
        </mxCell>
        <mxCell id="Gh2YYHZvv6eX0k9eP9Bt-86" value="" style="endArrow=none;html=1;rounded=0;" edge="1" parent="1" target="Gh2YYHZvv6eX0k9eP9Bt-85">
          <mxGeometry width="50" height="50" relative="1" as="geometry">
            <mxPoint x="400" y="166" as="sourcePoint" />
            <mxPoint x="445" y="166" as="targetPoint" />
          </mxGeometry>
        </mxCell>
        <mxCell id="Gh2YYHZvv6eX0k9eP9Bt-85" value="" style="shape=waypoint;sketch=0;fillStyle=solid;size=6;pointerEvents=1;points=[];fillColor=none;resizable=0;rotatable=0;perimeter=centerPerimeter;snapToPoint=1;" vertex="1" parent="1">
          <mxGeometry x="395" y="156" width="20" height="20" as="geometry" />
        </mxCell>
      </root>
    </mxGraphModel>
  </diagram>
</mxfile>
